# This file uses centimeters as units for non-parametric coordinates.

mtllib FloorCurve_HP.mtl
g default
v 0.000030 0.000000 0.000000
v 3.000000 0.000000 0.000000
v 3.000000 0.000000 -3.000000
v 2.925900 0.000000 -3.000000
v 2.678603 0.000000 -2.990745
v 2.368088 0.000000 -2.954576
v 2.070875 0.000000 -2.894047
v 1.788920 0.000000 -2.808840
v 1.523782 0.000000 -2.698627
v 1.276696 0.000000 -2.563169
v 1.048672 0.000000 -2.402414
v 0.840585 0.000000 -2.216606
v 0.653255 0.000000 -2.006369
v 0.487519 0.000000 -1.772769
v 0.344261 0.000000 -1.517355
v 0.224431 0.000000 -1.242162
v 0.129035 0.000000 -0.949689
v 0.059093 0.000000 -0.642854
v 0.015596 0.000000 -0.324921
vt 0.000010 0.000000
vt 1.000000 0.000000
vt 1.000000 1.000000
vt 0.975300 1.000000
vt 0.892868 0.996915
vt 0.789363 0.984859
vt 0.690292 0.964682
vt 0.596307 0.936280
vt 0.507927 0.899543
vt 0.425565 0.854390
vt 0.349557 0.800805
vt 0.280195 0.738869
vt 0.217752 0.668790
vt 0.162506 0.590923
vt 0.114754 0.505785
vt 0.074810 0.414054
vt 0.043012 0.316563
vt 0.019698 0.214285
vt 0.005199 0.108307
vn 0.000000 1.000000 0.000000
vn 0.000000 1.000000 0.000000
vn 0.000000 1.000000 0.000000
vn 0.000000 1.000000 0.000000
vn 0.000000 1.000000 0.000000
vn 0.000000 1.000000 0.000000
vn 0.000000 1.000000 0.000000
vn 0.000000 1.000000 0.000000
vn 0.000000 1.000000 0.000000
vn 0.000000 1.000000 0.000000
vn 0.000000 1.000000 0.000000
vn 0.000000 1.000000 0.000000
vn 0.000000 1.000000 0.000000
vn 0.000000 1.000000 0.000000
vn 0.000000 1.000000 0.000000
vn 0.000000 1.000000 0.000000
vn 0.000000 1.000000 0.000000
vn 0.000000 1.000000 0.000000
vn 0.000000 1.000000 0.000000
s off
g FloorCurve_HP
usemtl initialShadingGroup
f 1/1/1 2/2/2 3/3/3 4/4/4 5/5/5 6/6/6 7/7/7 8/8/8 9/9/9 10/10/10 11/11/11 12/12/12 13/13/13 14/14/14 15/15/15 16/16/16 17/17/17 18/18/18 19/19/19
