# This file uses centimeters as units for non-parametric coordinates.

mtllib Wall_HP.mtl
g default
v -0.996206 0.014160 -0.028320
v -0.985840 0.003794 -0.028320
v -0.971680 0.000000 -0.028320
v -0.971680 0.003794 -0.014160
v -0.971680 0.014160 -0.003794
v -0.971680 0.028320 0.000000
v -0.985840 0.028320 -0.003794
v -0.996206 0.028320 -0.014160
v -1.000000 0.028320 -0.028320
v -0.506675 0.000000 -0.028320
v -0.493325 0.000000 -0.028320
v -0.479975 0.000000 -0.028320
v -0.479976 0.003794 -0.014160
v -0.479976 0.014160 -0.003794
v -0.479975 0.028320 0.000000
v -0.493325 0.028320 0.000000
v -0.506675 0.028320 0.000000
v -0.520025 0.028320 0.000000
v -0.520025 0.014160 -0.003794
v -0.520025 0.003794 -0.014160
v -0.520025 0.000000 -0.028320
v -0.014160 0.003794 -0.028311
v -0.003794 0.014160 -0.028311
v 0.000000 0.028320 -0.028320
v -0.003794 0.028320 -0.014160
v -0.014160 0.028320 -0.003794
v -0.028320 0.028320 0.000000
v -0.028334 0.014160 -0.003794
v -0.028334 0.003794 -0.014160
v -0.028320 0.000000 -0.028320
v -0.985840 0.996206 -0.028322
v -0.996206 0.985840 -0.028322
v -1.000000 0.971680 -0.028320
v -0.996206 0.971680 -0.014160
v -0.985840 0.971680 -0.003794
v -0.971680 0.971680 0.000000
v -0.971680 0.985840 -0.003794
v -0.971680 0.996206 -0.014160
v -0.971680 1.000000 -0.028320
v -0.495564 0.993060 -0.028054
v -0.508080 0.998235 -0.028084
v -0.521523 1.000000 -0.028122
v -0.521052 0.996211 -0.014055
v -0.520507 0.985839 -0.003761
v -0.520034 0.971667 0.000000
v -0.505310 0.967500 0.000000
v -0.494099 0.955808 0.000000
v -0.479748 0.939243 0.000000
v -0.481575 0.962068 -0.003681
v -0.483435 0.978760 -0.013952
v -0.484827 0.984827 -0.028035
v -0.001833 0.491640 -0.029132
v -0.007208 0.504615 -0.029132
v -0.015757 0.515757 -0.029115
v -0.019386 0.512538 -0.014252
v -0.023541 0.502618 -0.003547
v -0.027055 0.488793 0.000000
v -0.014796 0.481502 -0.003547
v -0.004843 0.477426 -0.014252
v 0.000000 0.477716 -0.029115
v -0.985840 0.971682 -2.996206
v -0.996206 0.971682 -2.985840
v -1.000000 0.971680 -2.971680
v -0.996206 0.985840 -2.971679
v -0.985840 0.996206 -2.971679
v -0.971680 1.000000 -2.971680
v -0.971680 0.996206 -2.985840
v -0.971680 0.985840 -2.996206
v -0.971680 0.971680 -3.000000
v -0.494106 0.955746 -3.000000
v -0.505384 0.967381 -3.000000
v -0.520133 0.971527 -3.000000
v -0.520600 0.985769 -2.996225
v -0.521137 0.996192 -2.985895
v -0.521599 1.000000 -2.971779
v -0.508116 0.998234 -2.971846
v -0.495573 0.993061 -2.971909
v -0.484827 0.984827 -2.971965
v -0.483435 0.978760 -2.986048
v -0.481575 0.962068 -2.996319
v -0.479748 0.939243 -3.000000
v -0.004855 0.477654 -2.985964
v -0.014811 0.481619 -2.996526
v -0.027055 0.488793 -3.000000
v -0.023468 0.502525 -2.996525
v -0.019233 0.512368 -2.985963
v -0.015542 0.515542 -2.971282
v -0.007109 0.504552 -2.971273
v -0.001808 0.491754 -2.971273
v 0.000000 0.478020 -2.971282
v -0.985840 0.003794 -2.971680
v -0.996206 0.014160 -2.971680
v -1.000000 0.028320 -2.971680
v -0.996206 0.028320 -2.985840
v -0.985840 0.028320 -2.996206
v -0.971680 0.028320 -3.000000
v -0.971680 0.014160 -2.996206
v -0.971680 0.003794 -2.985840
v -0.971680 0.000000 -2.971680
v -0.493325 0.000000 -2.971680
v -0.506675 0.000000 -2.971680
v -0.520025 0.000000 -2.971680
v -0.520025 0.003794 -2.985840
v -0.520025 0.014160 -2.996206
v -0.520025 0.028320 -3.000000
v -0.506675 0.028320 -3.000000
v -0.493325 0.028320 -3.000000
v -0.479975 0.028320 -3.000000
v -0.479976 0.014160 -2.996206
v -0.479976 0.003794 -2.985840
v -0.479975 0.000000 -2.971680
v -0.003794 0.014160 -2.971685
v -0.014160 0.003794 -2.971685
v -0.028320 0.000000 -2.971680
v -0.028334 0.003794 -2.985840
v -0.028334 0.014160 -2.996206
v -0.028320 0.028320 -3.000000
v -0.014160 0.028320 -2.996206
v -0.003794 0.028320 -2.985840
v 0.000000 0.028320 -2.971680
v -0.994076 0.016083 -0.016083
v -0.983917 0.005924 -0.016083
v -0.983917 0.016083 -0.005924
v -0.506679 0.003794 -0.014160
v -0.493323 0.003794 -0.014160
v -0.493323 0.014160 -0.003794
v -0.506679 0.014160 -0.003794
v -0.016077 0.005924 -0.016082
v -0.005916 0.016085 -0.016080
v -0.016084 0.016083 -0.005925
v -0.983917 0.994076 -0.016084
v -0.994076 0.983917 -0.016085
v -0.983917 0.983917 -0.005924
v -0.495170 0.988135 -0.014003
v -0.507615 0.994168 -0.014021
v -0.506324 0.982904 -0.003743
v -0.494466 0.974487 -0.003734
v -0.005227 0.489811 -0.016237
v -0.010900 0.503510 -0.016236
v -0.014153 0.494137 -0.005595
v -0.983917 0.983918 -2.994076
v -0.994076 0.983918 -2.983916
v -0.983917 0.994076 -2.983916
v -0.494475 0.974455 -2.996260
v -0.506384 0.982844 -2.996246
v -0.507654 0.994151 -2.985943
v -0.495175 0.988126 -2.985978
v -0.005214 0.489906 -2.984008
v -0.014124 0.494149 -2.994514
v -0.010825 0.503451 -2.984010
v -0.983917 0.005924 -2.983917
v -0.994076 0.016083 -2.983917
v -0.983917 0.016083 -2.994076
v -0.493323 0.003794 -2.985840
v -0.506679 0.003794 -2.985840
v -0.506679 0.014160 -2.996206
v -0.493323 0.014160 -2.996206
v -0.005916 0.016085 -2.983917
v -0.016076 0.005924 -2.983915
v -0.016084 0.016083 -2.994074
vt 0.084485 0.011533
vt 0.664627 0.310426
vt 0.012881 0.011533
vt 0.594251 0.011533
vt 0.740435 0.310405
vt 0.522646 0.011533
vt 0.513667 0.011533
vt 0.664627 0.456079
vt 0.734267 0.456077
vt 0.740470 0.451050
vt 0.810084 0.381033
vt 0.442420 0.011660
vt 0.093465 0.478170
vt 0.252004 0.478170
vt 0.323359 0.478186
vt 0.330185 0.478215
vt 0.435403 0.478107
vt 0.442372 0.478107
vt 0.513667 0.478170
vt 0.012881 0.478170
vt 0.857627 0.015592
vt 0.785199 0.015592
vt 0.522646 0.478170
vt 0.778791 0.015556
vt 0.706688 0.015541
vt 0.734268 0.310426
vt 0.809890 0.310397
vt 0.252004 0.011533
vt 0.323371 0.011501
vt 0.330185 0.011488
vt 0.435354 0.011659
vt 0.857627 0.167212
vt 0.785216 0.167187
vt 0.778754 0.161962
vt 0.706487 0.088747
vt 0.084485 0.478170
vt 0.594251 0.478170
vt 0.093465 0.011533
vt 0.243024 0.011533
vt 0.243024 0.478170
vt 0.090481 0.011507
vt 0.087492 0.011507
vt 0.737356 0.306053
vt 0.086833 0.007044
vt 0.692791 0.304128
vt 0.696921 0.306224
vt 0.093203 0.007044
vt 0.737356 0.306053
vt 0.011296 0.010457
vt 0.597426 0.009389
vt 0.009706 0.009389
vt 0.737356 0.306053
vt 0.595274 0.007044
vt 0.738891 0.308225
vt 0.738381 0.310414
vt 0.736324 0.310408
vt 0.735804 0.308235
vt 0.014011 0.007044
vt 0.737356 0.306053
vt 0.519664 0.011506
vt 0.516674 0.011506
vt 0.737356 0.306053
vt 0.516082 0.007044
vt 0.770002 0.303859
vt 0.769986 0.304098
vt 0.522454 0.007044
vt 0.737356 0.306053
vt 0.249024 0.011508
vt 0.246032 0.011508
vt 0.737356 0.306053
vt 0.245304 0.007044
vt 0.697989 0.378418
vt 0.694921 0.375735
vt 0.251674 0.007044
vt 0.737356 0.306053
vt 0.327918 0.011474
vt 0.325653 0.011479
vt 0.737356 0.306053
vt 0.324330 0.007044
vt 0.730505 0.376006
vt 0.733137 0.449298
vt 0.736037 0.448541
vt 0.736125 0.376021
vt 0.331173 0.007044
vt 0.737356 0.306053
vt 0.440081 0.011639
vt 0.437723 0.011639
vt 0.737356 0.306053
vt 0.437233 0.007044
vt 0.772571 0.343948
vt 0.772823 0.342390
vt 0.443670 0.007044
vt 0.737356 0.306053
vt 0.819146 0.087747
vt 0.245570 0.482660
vt 0.781987 0.011041
vt 0.246032 0.478189
vt 0.249022 0.478183
vt 0.251959 0.480429
vt 0.781987 0.011041
vt 0.251947 0.482660
vt 0.781135 0.158207
vt 0.782882 0.159499
vt 0.324758 0.482660
vt 0.781987 0.011041
vt 0.327500 0.478054
vt 0.326677 0.477488
vt 0.329220 0.477315
vt 0.333647 0.478345
vt 0.781987 0.011041
vt 0.332339 0.482660
vt 0.781987 0.011041
vt 0.443460 0.482660
vt 0.742868 0.050820
vt 0.437078 0.482660
vt 0.781987 0.011041
vt 0.438401 0.476773
vt 0.438392 0.477132
vt 0.440386 0.477632
vt 0.087492 0.478196
vt 0.090482 0.478196
vt 0.781987 0.011041
vt 0.093297 0.482660
vt 0.814828 0.016493
vt 0.809696 0.019707
vt 0.086920 0.482660
vt 0.781987 0.011041
vt 0.009706 0.480314
vt 0.597426 0.480314
vt 0.011296 0.479247
vt 0.781987 0.011041
vt 0.014016 0.482660
vt 0.783583 0.013323
vt 0.783058 0.015618
vt 0.780930 0.015638
vt 0.780386 0.013306
vt 0.595271 0.482660
vt 0.781987 0.011041
vt 0.516673 0.478197
vt 0.519663 0.478197
vt 0.781987 0.011041
vt 0.522369 0.482660
vt 0.741394 0.019701
vt 0.741361 0.019593
vt 0.515990 0.482660
vt 0.781987 0.011041
vt 0.737356 0.306053
vt 0.091176 0.007044
vt 0.737356 0.306053
vt 0.088860 0.007044
vt 0.456926 0.187163
vt 0.737356 0.306053
vt 0.011859 0.007044
vt 0.737356 0.306053
vt 0.009706 0.007044
vt 0.597426 0.007044
vt 0.737866 0.308231
vt 0.736837 0.308232
vt 0.737356 0.306053
vt 0.520424 0.007044
vt 0.737356 0.306053
vt 0.518107 0.007044
vt 0.668785 0.186545
vt 0.737356 0.306053
vt 0.249647 0.007044
vt 0.737356 0.306053
vt 0.247331 0.007044
vt 0.520596 0.227235
vt 0.737356 0.306053
vt 0.328751 0.007044
vt 0.737356 0.306053
vt 0.326522 0.007044
vt 0.564439 0.232969
vt 0.658517 0.312678
vt 0.737356 0.306053
vt 0.441647 0.007044
vt 0.737356 0.306053
vt 0.439256 0.007044
vt 0.641579 0.211130
vt 0.249918 0.482660
vt 0.781987 0.011041
vt 0.247599 0.482660
vt 0.781987 0.011041
vt 0.249224 0.480846
vt 0.329452 0.482660
vt 0.781987 0.011041
vt 0.327101 0.482660
vt 0.781987 0.011041
vt 0.434359 0.406513
vt 0.522487 0.347916
vt 0.441456 0.482660
vt 0.781987 0.011041
vt 0.439130 0.482660
vt 0.781987 0.011041
vt 0.543707 0.323159
vt 0.781987 0.011041
vt 0.088949 0.482660
vt 0.781987 0.011041
vt 0.091268 0.482660
vt 0.524434 0.201731
vt 0.781987 0.011041
vt 0.597426 0.482660
vt 0.009706 0.482660
vt 0.781987 0.011041
vt 0.011862 0.482660
vt 0.782521 0.013327
vt 0.781456 0.013327
vt 0.781987 0.011041
vt 0.518018 0.482660
vt 0.781987 0.011041
vt 0.520337 0.482660
vt 0.654908 0.202541
vn -0.008135 -0.999966 0.001273
vn -0.258728 -0.965950 0.000904
vn -0.258728 -0.965950 -0.000904
vn -0.008135 -0.999966 -0.001273
vn -0.707108 -0.707105 0.000953
vn -0.707108 -0.707105 0.000953
vn -0.707108 -0.707105 -0.000953
vn -0.707108 -0.707105 -0.000953
vn -0.965950 -0.258728 0.000904
vn -0.999991 -0.003958 0.001278
vn -0.999991 -0.003958 -0.001278
vn -0.965950 -0.258728 -0.000904
vn -0.008115 -0.003932 0.999959
vn -0.005769 -0.258239 0.966064
vn -0.000000 -0.258819 0.965926
vn -0.000000 -0.003957 0.999992
vn -0.006074 -0.707094 0.707094
vn -0.006074 -0.707094 0.707094
vn 0.000000 -0.707107 0.707107
vn 0.000000 -0.707107 0.707107
vn -0.005769 -0.966064 0.258239
vn 0.000000 -0.999999 0.001283
vn 0.000000 -0.965926 0.258819
vn -0.965997 -0.002798 0.258538
vn -0.965997 0.002798 0.258538
vn -0.999991 0.003957 0.001278
vn -0.707103 -0.002948 0.707104
vn -0.499954 -0.002974 0.866047
vn -0.499955 0.002975 0.866046
vn -0.707103 0.002949 0.707104
vn -0.008116 0.003914 0.999959
vn 0.000000 -0.999999 0.001283
vn -0.000000 -0.999999 0.001283
vn -0.000000 -0.999999 -0.001283
vn 0.000000 -0.999999 -0.001283
vn 0.000000 -0.999999 0.001283
vn -0.000000 -0.999999 -0.001283
vn 0.000000 -0.999999 -0.001283
vn -0.000000 -0.005355 0.999986
vn -0.000000 -0.500004 0.866023
vn 0.005764 -0.258243 0.966063
vn 0.005300 -0.005429 0.999971
vn 0.000000 -0.866023 0.500004
vn 0.006126 -0.866098 0.499836
vn 0.006073 -0.707092 0.707096
vn 0.008138 -0.999966 0.001272
vn -0.000000 -0.004043 0.999992
vn 0.003151 0.005051 0.999982
vn 0.000035 0.003912 0.999992
vn 0.000000 -0.004123 0.999992
vn 0.004245 0.004184 0.999982
vn 0.013510 0.013526 0.999817
vn 0.999966 -0.008178 0.001447
vn 0.866007 -0.500031 0.000960
vn 0.866020 -0.500008 -0.000960
vn 0.999966 -0.008173 -0.001449
vn 0.500031 -0.866007 0.000962
vn 0.500008 -0.866020 -0.000961
vn 0.008137 -0.999966 -0.001272
vn 0.266766 -0.006536 0.963739
vn 0.465966 0.002925 0.884798
vn 0.004837 0.002383 0.999986
vn 0.719614 -0.004887 0.694358
vn 0.865688 -0.004699 0.500562
vn 0.856922 0.003599 0.515433
vn 0.999991 0.003923 0.001436
vn -0.965950 0.258728 0.000904
vn -0.965950 0.258728 -0.000904
vn -0.999991 0.003957 -0.001278
vn -0.707104 0.707109 0.000953
vn -0.499974 0.866040 0.000961
vn -0.499980 0.866037 -0.000961
vn -0.707104 0.707109 -0.000953
vn -0.008159 0.999966 0.001272
vn -0.008160 0.999966 -0.001275
vn -0.005893 0.965896 0.258865
vn 0.004103 0.965700 0.259627
vn 0.003816 0.999992 0.001308
vn -0.006204 0.705805 0.708379
vn -0.006215 0.498290 0.866988
vn 0.002934 0.493732 0.869609
vn 0.003200 0.705483 0.708720
vn 0.258190 0.966093 0.001295
vn 0.258367 0.966046 -0.001309
vn 0.003820 0.999992 -0.001310
vn 0.499375 0.866385 0.001322
vn 0.499555 0.866281 -0.001330
vn 0.705252 0.708956 0.001080
vn 0.705255 0.708953 -0.001082
vn 0.643623 0.644435 0.412859
vn 0.610029 0.605712 0.510859
vn 0.709003 0.705205 0.001352
vn 0.439946 0.438632 0.783613
vn 0.325596 0.322267 0.888893
vn 0.865990 0.500060 0.001340
vn 0.866003 0.500037 -0.001293
vn 0.709004 0.705203 -0.001350
vn 0.965943 0.258751 0.001340
vn 0.965936 0.258777 -0.001293
vn 0.999991 0.003926 -0.001435
vn -0.965997 0.002799 -0.258539
vn -0.965997 -0.002798 -0.258539
vn -0.707105 0.002948 -0.707103
vn -0.499961 0.002975 -0.866043
vn -0.499952 -0.002974 -0.866048
vn -0.707105 -0.002948 -0.707103
vn -0.008118 0.003922 -0.999959
vn -0.008116 -0.003933 -0.999959
vn -0.006103 0.498056 -0.867123
vn 0.003015 0.493541 -0.869717
vn 0.000036 0.003918 -0.999992
vn -0.006074 0.705561 -0.708623
vn 0.003302 0.705219 -0.708982
vn -0.005821 0.965848 -0.259043
vn 0.004153 0.965648 -0.259819
vn 0.003128 0.005068 -0.999982
vn -0.000000 -0.004037 -0.999992
vn 0.000000 -0.003958 -0.999992
vn 0.004228 0.004194 -0.999982
vn 0.000000 -0.004118 -0.999992
vn 0.013372 0.013395 -0.999821
vn 0.000000 -0.005355 -0.999986
vn 0.437915 0.436811 -0.785766
vn 0.323971 0.320852 -0.889998
vn 0.004810 0.002370 -0.999986
vn 0.642728 0.643780 -0.415269
vn 0.609004 0.604939 -0.512993
vn 0.463804 0.002719 -0.885934
vn 0.264505 -0.006612 -0.964361
vn 0.005249 -0.005431 -0.999972
vn 0.855613 0.003336 -0.517605
vn 0.864233 -0.004922 -0.503068
vn 0.717236 -0.005109 -0.696811
vn -0.005769 -0.966064 -0.258239
vn 0.000000 -0.965926 -0.258820
vn -0.006074 -0.707091 -0.707096
vn -0.006131 -0.499901 -0.866061
vn 0.000000 -0.500002 -0.866024
vn 0.000001 -0.707104 -0.707109
vn 0.000000 -0.965926 -0.258820
vn 0.005761 -0.966063 -0.258243
vn -0.000000 -0.707104 -0.707110
vn -0.000000 -0.500003 -0.866023
vn 0.006130 -0.499835 -0.866099
vn 0.006077 -0.707090 -0.707097
vn -0.946104 -0.229005 0.229007
vn -0.707842 -0.499480 0.499480
vn -0.499481 -0.707840 0.499481
vn -0.229006 -0.946104 0.229007
vn -0.499480 -0.499478 0.707842
vn -0.229006 -0.229007 0.946103
vn 0.000000 -0.866023 0.500004
vn -0.000000 -0.866022 0.500007
vn -0.000000 -0.500005 0.866023
vn -0.000000 -0.500003 0.866024
vn 0.228775 -0.946124 0.229154
vn 0.499245 -0.707879 0.499661
vn 0.707798 -0.499312 0.499710
vn 0.946232 -0.228666 0.228815
vn 0.499056 -0.499560 0.708084
vn 0.228941 -0.229171 0.946080
vn -0.229036 0.946100 0.228993
vn -0.499512 0.707844 0.499445
vn -0.707845 0.499514 0.499442
vn -0.946099 0.229035 0.228999
vn -0.499500 0.499501 0.707813
vn -0.229022 0.229022 0.946096
vn 0.472648 0.722799 0.504147
vn 0.257525 0.825170 0.502768
vn 0.199859 0.476952 0.855905
vn 0.329085 0.400551 0.855138
vn 0.882564 0.198228 0.426365
vn 0.764253 0.483871 0.426364
vn 0.591532 0.244989 0.768160
vn -0.228981 0.229020 -0.946106
vn -0.499473 0.499515 -0.707822
vn -0.707840 0.499523 -0.499439
vn -0.946104 0.229026 -0.228983
vn -0.499479 0.707865 -0.499447
vn -0.229015 0.946105 -0.228991
vn 0.326912 0.400430 -0.856028
vn 0.197948 0.476418 -0.856646
vn 0.255865 0.825104 -0.503722
vn 0.470766 0.723283 -0.505214
vn 0.880170 0.197016 -0.431840
vn 0.585918 0.242659 -0.773186
vn 0.761704 0.483035 -0.431839
vn -0.229012 -0.946102 -0.229007
vn -0.499484 -0.707839 -0.499479
vn -0.707841 -0.499477 -0.499483
vn -0.946105 -0.229001 -0.229007
vn -0.499479 -0.499479 -0.707843
vn -0.229001 -0.229005 -0.946105
vn -0.000001 -0.965926 -0.258820
vn -0.000001 -0.965926 -0.258820
vn 0.000010 -0.707104 -0.707109
vn 0.000001 -0.500002 -0.866024
vn 0.000001 -0.500004 -0.866023
vn 0.000000 -0.707104 -0.707109
vn 0.946223 -0.228723 -0.228797
vn 0.707800 -0.499374 -0.499645
vn 0.499316 -0.707883 -0.499585
vn 0.228831 -0.946114 -0.229138
vn 0.499091 -0.499602 -0.708030
vn 0.228989 -0.229206 -0.946059
s 1
g Wall_HP
usemtl initialShadingGroup
f 3/1/1 2/42/2 91/120/3 99/36/4
f 2/42/5 1/41/6 92/121/7 91/120/8
s 3
f 1/41/9 9/38/10 93/13/11 92/121/12
s 1
f 6/2/13 5/45/14 19/57/15 18/26/16
f 5/45/17 4/43/18 20/59/19 19/57/20
f 4/44/21 3/1/1 21/3/22 20/58/23
s 3
f 9/38/10 8/47/24 34/71/25 33/39/26
s 1
f 8/48/27 7/46/28 35/72/29 34/70/30
f 7/46/28 6/2/13 36/8/31 35/72/29
f 12/4/32 11/50/33 100/129/34 111/37/35
f 11/51/33 10/49/36 101/130/37 100/128/34
f 10/49/36 21/3/22 102/20/38 101/130/37
f 15/5/39 14/54/40 28/65/41 27/27/42
f 14/54/40 13/52/43 29/67/44 28/65/45
f 13/53/43 12/4/32 30/6/46 29/66/44
f 18/26/16 17/56/47 46/81/48 45/9/49
f 17/56/47 16/55/50 47/82/51 46/81/48
f 16/55/50 15/5/39 48/10/52 47/82/51
f 24/7/53 23/61/54 112/139/55 120/19/56
f 23/61/54 22/60/57 113/140/58 112/139/55
f 22/60/57 30/6/46 114/23/59 113/140/58
f 27/27/42 26/64/60 58/91/61 57/11/62
f 26/64/63 25/62/64 59/93/65 58/91/61
f 25/63/64 24/7/53 60/12/66 59/92/65
s 3
f 33/39/26 32/69/67 64/97/68 63/40/69
s 1
f 32/69/70 31/68/71 65/98/72 64/97/73
f 31/68/71 39/28/74 66/14/75 65/98/72
f 39/28/74 38/74/76 43/79/77 42/29/78
f 38/75/79 37/73/80 44/80/81 43/78/82
f 37/73/80 36/8/31 45/9/49 44/80/81
f 42/29/78 41/77/83 76/107/84 75/15/85
f 41/77/83 40/76/86 77/108/87 76/107/84
f 40/76/86 51/30/88 78/16/89 77/108/87
f 51/30/88 50/84/90 55/89/91 54/31/92
f 50/85/90 49/83/93 56/90/94 55/88/91
f 49/83/93 48/10/52 57/11/62 56/90/94
f 54/31/92 53/87/95 88/118/96 87/17/97
f 53/87/95 52/86/98 89/119/99 88/118/96
f 52/86/98 60/12/66 90/18/100 89/119/99
s 3
f 63/40/69 62/95/101 94/123/102 93/13/11
s 1
f 62/96/103 61/94/104 95/124/105 94/122/106
f 61/94/104 69/32/107 96/21/108 95/124/105
f 69/32/107 68/100/109 73/105/110 72/33/111
f 68/101/109 67/99/112 74/106/113 73/104/110
f 67/99/114 66/14/75 75/15/85 74/106/115
f 72/33/111 71/103/116 106/134/117 105/22/118
f 71/103/116 70/102/119 107/135/120 106/134/117
f 70/102/119 81/34/121 108/24/122 107/135/120
f 81/34/121 80/110/123 85/116/124 84/35/125
f 80/111/123 79/109/126 86/117/127 85/115/124
f 79/109/126 78/16/89 87/17/97 86/117/127
f 84/35/125 83/114/128 118/144/129 117/25/130
f 83/114/128 82/112/131 119/146/132 118/144/133
f 82/113/131 90/18/100 120/19/56 119/145/132
f 99/36/4 98/126/134 103/132/135 102/20/38
f 98/127/136 97/125/137 104/133/138 103/131/139
f 97/125/137 96/21/108 105/22/118 104/133/138
f 111/37/35 110/137/140 115/142/141 114/23/59
f 110/138/142 109/136/143 116/143/144 115/141/145
f 109/136/143 108/24/122 117/25/130 116/143/144
f 6/2/13 18/26/16 45/9/49 36/8/31
f 15/5/39 27/27/42 57/11/62 48/10/52
f 39/28/74 42/29/78 75/15/85 66/14/75
f 51/30/88 54/31/92 87/17/97 78/16/89
f 69/32/107 72/33/111 105/22/118 96/21/108
f 81/34/121 84/35/125 117/25/130 108/24/122
f 99/36/4 102/20/38 21/3/22 3/1/1
f 111/37/35 114/23/59 30/6/46 12/4/32
f 24/7/53 120/19/56 90/18/100 60/12/66
s 3
f 93/13/11 9/38/10 33/39/26 63/40/69
f 8/47/24 9/38/10 1/41/9 121/148/146
s 1
f 121/148/147 1/41/6 2/42/5 122/150/148
f 2/42/2 3/1/1 4/44/21 122/150/149
f 122/149/148 4/43/18 5/45/17 123/151/150
f 5/45/14 6/2/13 7/46/28 123/151/151
f 123/151/150 7/46/28 8/48/27 121/147/147
f 121/147/147 122/149/148 123/151/150
f 20/58/23 21/3/22 10/49/36 124/153/152
f 124/153/152 10/49/36 11/51/33 125/155/153
f 11/50/33 12/4/32 13/53/43 125/156/153
f 125/154/153 13/52/43 14/54/40 126/157/154
f 14/54/40 15/5/39 16/55/50 126/157/154
f 126/157/154 16/55/50 17/56/47 127/158/155
f 17/56/47 18/26/16 19/57/15 127/158/155
f 127/158/155 19/57/20 20/59/19 124/152/152
f 124/152/152 125/154/153 126/157/154 127/158/155
f 29/66/44 30/6/46 22/60/57 128/160/156
f 128/160/157 22/60/57 23/61/54 129/162/158
f 23/61/54 24/7/53 25/63/64 129/162/159
f 129/161/158 25/62/64 26/64/63 130/163/160
f 26/64/60 27/27/42 28/65/41 130/163/161
f 130/163/160 28/65/45 29/67/44 128/159/157
f 128/159/157 129/161/158 130/163/160
f 38/74/76 39/28/74 31/68/71 131/165/162
f 131/165/163 31/68/71 32/69/70 132/167/164
s 3
f 32/69/67 33/39/26 34/71/25 132/167/165
s 1
f 132/166/164 34/70/30 35/72/29 133/168/166
f 35/72/29 36/8/31 37/73/80 133/168/167
f 133/168/166 37/73/80 38/75/79 131/164/163
f 131/164/163 132/166/164 133/168/166
f 50/84/90 51/30/88 40/76/86 134/170/168
f 134/170/168 40/76/86 41/77/83 135/172/169
f 41/77/83 42/29/78 43/79/77 135/172/169
f 135/171/169 43/78/82 44/80/81 136/173/170
f 44/80/81 45/9/49 46/81/48 136/173/170
f 136/173/170 46/81/48 47/82/51 137/174/171
f 47/82/51 48/10/52 49/83/93 137/174/171
f 137/174/171 49/83/93 50/85/90 134/169/168
f 134/169/168 135/171/169 136/173/170 137/174/171
f 59/92/65 60/12/66 52/86/98 138/176/172
f 138/176/172 52/86/98 53/87/95 139/178/173
f 53/87/95 54/31/92 55/89/91 139/178/173
f 139/177/173 55/88/91 56/90/94 140/179/174
f 56/90/94 57/11/62 58/91/61 140/179/174
f 140/179/174 58/91/61 59/93/65 138/175/172
f 138/175/172 139/177/173 140/179/174
f 68/100/109 69/32/107 61/94/104 141/181/175
f 141/181/176 61/94/104 62/96/103 142/183/177
s 3
f 62/95/101 63/40/69 64/97/68 142/182/178
s 1
f 142/182/177 64/97/73 65/98/72 143/184/179
f 65/98/72 66/14/75 67/99/114 143/184/180
f 143/184/179 67/99/112 68/101/109 141/180/176
f 141/180/176 142/182/177 143/184/179
f 80/110/123 81/34/121 70/102/119 144/186/181
f 144/186/181 70/102/119 71/103/116 145/188/182
f 71/103/116 72/33/111 73/105/110 145/188/182
f 145/187/182 73/104/110 74/106/113 146/189/183
f 74/106/115 75/15/85 76/107/84 146/189/183
f 146/189/183 76/107/84 77/108/87 147/190/184
f 77/108/87 78/16/89 79/109/126 147/190/184
f 147/190/184 79/109/126 80/111/123 144/185/181
f 144/185/181 145/187/182 146/189/183 147/190/184
f 89/119/99 90/18/100 82/113/131 148/191/185
f 148/192/185 82/112/131 83/114/128 149/194/186
f 83/114/128 84/35/125 85/116/124 149/194/186
f 149/193/186 85/115/124 86/117/127 150/195/187
f 86/117/127 87/17/97 88/118/96 150/195/187
f 150/195/187 88/118/96 89/119/99 148/191/185
f 148/191/185 149/193/186 150/195/187
f 98/126/134 99/36/4 91/120/3 151/197/188
f 151/197/189 91/120/8 92/121/7 152/199/190
s 3
f 92/121/12 93/13/11 94/123/102 152/199/191
s 1
f 152/198/190 94/122/106 95/124/105 153/200/192
f 95/124/105 96/21/108 97/125/137 153/200/193
f 153/200/192 97/125/137 98/127/136 151/196/189
f 151/196/189 152/198/190 153/200/192
f 110/137/140 111/37/35 100/129/34 154/202/194
f 154/203/194 100/128/34 101/130/37 155/205/195
f 101/130/37 102/20/38 103/132/135 155/205/195
f 155/204/196 103/131/139 104/133/138 156/206/197
f 104/133/138 105/22/118 106/134/117 156/206/197
f 156/206/197 106/134/117 107/135/120 157/207/198
f 107/135/120 108/24/122 109/136/143 157/207/198
f 157/207/198 109/136/143 110/138/142 154/201/199
f 154/201/199 155/204/196 156/206/197 157/207/198
f 119/145/132 120/19/56 112/139/55 158/209/200
f 158/209/201 112/139/55 113/140/58 159/211/202
f 113/140/58 114/23/59 115/142/141 159/211/203
f 159/210/202 115/141/145 116/143/144 160/212/204
f 116/143/144 117/25/130 118/144/129 160/212/205
f 160/212/204 118/144/133 119/146/132 158/208/201
f 158/208/201 159/210/202 160/212/204
