# This file uses centimeters as units for non-parametric coordinates.

mtllib CurveFlat90.mtl
g default
v 0.000000 0.000000 0.000000
v 4.000400 0.000000 0.000000
v 0.000000 0.000000 0.000800
v 0.098483 0.000000 1.252151
v 0.391509 0.000000 2.472689
v 0.871861 0.000000 3.632361
v 1.527711 0.000000 4.702612
v 2.342911 0.000000 5.657089
v 5.206675 0.000000 2.793325
v 4.764256 0.000000 2.350906
v 4.196155 0.000000 1.235944
v 3.297388 0.000000 6.472289
v 4.367639 0.000000 7.128139
v 5.527311 0.000000 7.608491
v 6.747849 0.000000 7.901516
v 7.999200 0.000000 8.000000
v 8.000000 0.000000 8.000000
v 8.000000 0.000000 4.000000
v 6.764056 0.000000 3.803846
v 5.649094 0.000000 3.235744
vt 0.615957 0.998008
vt 0.233829 0.998008
vt 0.233829 0.997931
vt 0.243237 0.878400
vt 0.271227 0.761811
vt 0.317111 0.651036
vt 0.379760 0.548804
vt 0.457630 0.457630
vt 0.731183 0.731183
vt 0.688922 0.773444
vt 0.634656 0.879948
vt 0.548803 0.379760
vt 0.651036 0.317111
vt 0.761811 0.271227
vt 0.878399 0.243237
vt 0.997931 0.233829
vt 0.998008 0.233829
vt 0.998008 0.615919
vt 0.879948 0.634656
vt 0.773444 0.688922
vn 0.000000 1.000000 0.000000
vn 0.000000 1.000000 0.000000
vn 0.000000 1.000000 0.000000
vn 0.000000 1.000000 0.000000
vn 0.000000 1.000000 0.000000
vn 0.000000 1.000000 0.000000
vn 0.000000 1.000000 0.000000
vn 0.000000 1.000000 0.000000
vn 0.000000 1.000000 0.000000
vn 0.000000 1.000000 0.000000
vn 0.000000 1.000000 0.000000
vn 0.000000 1.000000 0.000000
vn 0.000000 1.000000 0.000000
vn 0.000000 1.000000 0.000000
vn 0.000000 1.000000 0.000000
vn 0.000000 1.000000 0.000000
vn 0.000000 1.000000 0.000000
vn 0.000000 1.000000 0.000000
vn 0.000000 1.000000 0.000000
vn 0.000000 1.000000 0.000000
s 1
g CurveFlat90
usemtl initialShadingGroup
f 2/1/1 1/2/2 3/3/3 4/4/4 5/5/5 6/6/6 7/7/7 8/8/8 9/9/9 10/10/10 11/11/11
f 9/9/9 8/8/8 12/12/12 13/13/13 14/14/14 15/15/15 16/16/16 17/17/17 18/18/18 19/19/19 20/20/20
