# This file uses centimeters as units for non-parametric coordinates.

mtllib CurvedCorner90.mtl
g default
v 8.000000 0.000000 8.000000
v 0.000000 0.000000 0.000000
v 0.000000 0.000000 0.000800
v 0.098483 0.000000 1.252151
v 0.391509 0.000000 2.472689
v 0.871861 0.000000 3.632361
v 1.527711 0.000000 4.702612
v 2.342911 0.000000 5.657089
v 3.297388 0.000000 6.472289
v 4.367639 0.000000 7.128139
v 5.527311 0.000000 7.608491
v 6.747849 0.000000 7.901516
v 7.999200 0.000000 8.000000
v 4.000400 0.000000 0.000000
v 8.000000 0.000000 4.000000
v 6.764056 0.000000 3.803846
v 5.649094 0.000000 3.235744
v 4.764256 0.000000 2.350906
v 4.196155 0.000000 1.235944
v -2.293412 1.703039 1.270905
v -2.427046 1.703039 -0.000000
v -1.895815 1.703039 2.927056
v -1.244031 1.703039 4.500605
v -0.354102 1.703039 5.952823
v 0.752048 1.703039 7.247953
v 2.047178 1.703039 8.354102
v 3.499396 1.703039 9.244032
v 5.072945 1.703039 9.895817
v 6.729096 1.703039 10.293414
v 8.000000 1.703039 10.427047
v 5.206675 0.000000 2.793325
vt 0.615957 0.998008
vt 0.233829 0.998008
vt 0.233829 0.997931
vt 0.243237 0.878400
vt 0.271227 0.761811
vt 0.317111 0.651036
vt 0.379760 0.548804
vt 0.457630 0.457630
vt 0.731183 0.731183
vt 0.688922 0.773444
vt 0.634656 0.879948
vt 0.001992 0.998008
vt 0.014757 0.876608
vt 0.052736 0.718409
vt 0.114996 0.568100
vt 0.200005 0.429380
vt 0.305667 0.305666
vt 0.548803 0.379760
vt 0.651036 0.317111
vt 0.761811 0.271227
vt 0.878399 0.243237
vt 0.997931 0.233829
vt 0.998008 0.233829
vt 0.998008 0.615919
vt 0.879948 0.634656
vt 0.773444 0.688922
vt 0.429380 0.200005
vt 0.568100 0.114996
vt 0.718409 0.052736
vt 0.876608 0.014757
vt 0.998008 0.001992
vn 0.000000 1.000000 0.000000
vn 0.000000 1.000000 0.000000
vn 0.000000 1.000000 0.000000
vn 0.000000 1.000000 0.000000
vn 0.000000 1.000000 0.000000
vn 0.000000 1.000000 0.000000
vn 0.000000 1.000000 0.000000
vn 0.000000 1.000000 0.000000
vn 0.000000 1.000000 0.000000
vn 0.000000 1.000000 0.000000
vn 0.000000 1.000000 0.000000
vn 0.576245 0.815555 -0.053030
vn 0.576245 0.815555 -0.053030
vn 0.576245 0.815555 -0.053030
vn 0.576245 0.815555 -0.053030
vn 0.573760 0.807357 -0.137746
vn 0.573760 0.807357 -0.137746
vn 0.573760 0.807357 -0.137746
vn 0.573760 0.807357 -0.137746
vn 0.551778 0.802062 -0.228554
vn 0.551778 0.802062 -0.228554
vn 0.551778 0.802062 -0.228554
vn 0.551778 0.802062 -0.228554
vn 0.513459 0.798346 -0.314650
vn 0.513459 0.798346 -0.314650
vn 0.513459 0.798346 -0.314650
vn 0.513459 0.798346 -0.314650
vn 0.459842 0.796428 -0.392743
vn 0.459842 0.796428 -0.392743
vn 0.459842 0.796428 -0.392743
vn 0.459842 0.796428 -0.392743
vn 0.392743 0.796428 -0.459842
vn 0.392743 0.796428 -0.459842
vn 0.392743 0.796428 -0.459842
vn 0.392743 0.796428 -0.459842
vn 0.314650 0.798346 -0.513459
vn 0.314650 0.798346 -0.513459
vn 0.314650 0.798346 -0.513459
vn 0.314650 0.798346 -0.513458
vn 0.228554 0.802062 -0.551778
vn 0.228554 0.802062 -0.551778
vn 0.228554 0.802062 -0.551778
vn 0.228554 0.802062 -0.551778
vn 0.137746 0.807357 -0.573760
vn 0.137746 0.807357 -0.573760
vn 0.137746 0.807357 -0.573760
vn 0.137746 0.807357 -0.573760
vn 0.053030 0.815555 -0.576245
vn 0.053030 0.815555 -0.576245
vn 0.053030 0.815555 -0.576245
vn 0.053030 0.815555 -0.576245
vn 0.000000 1.000000 0.000000
vn 0.000000 1.000000 0.000000
vn 0.000000 1.000000 0.000000
vn 0.000000 1.000000 0.000000
vn 0.000000 1.000000 0.000000
vn 0.000000 1.000000 0.000000
vn 0.000000 1.000000 0.000000
vn 0.000000 1.000000 0.000000
vn 0.000000 1.000000 0.000000
s 1
g CurvedCorner90
usemtl initialShadingGroup
f 14/1/1 2/2/2 3/3/3 4/4/4 5/5/5 6/6/6 7/7/7 8/8/8 31/9/9 18/10/10 19/11/11
s off
f 4/4/12 3/3/13 21/12/14 20/13/15
f 5/5/16 4/4/17 20/13/18 22/14/19
f 6/6/20 5/5/21 22/14/22 23/15/23
f 7/7/24 6/6/25 23/15/26 24/16/27
f 8/8/28 7/7/29 24/16/30 25/17/31
f 9/18/32 8/8/33 25/17/34 26/27/35
f 10/19/36 9/18/37 26/27/38 27/28/39
f 11/20/40 10/19/41 27/28/42 28/29/43
f 12/21/44 11/20/45 28/29/46 29/30/47
f 13/22/48 12/21/49 29/30/50 30/31/51
s 1
f 31/9/9 8/8/8 9/18/52 10/19/53 11/20/54 12/21/55 13/22/56 1/23/57 15/24/58 16/25/59 17/26/60
