# This file uses centimeters as units for non-parametric coordinates.

mtllib CurveEdge90.mtl
g default
v 0.000000 0.000000 0.000800
v 0.098483 0.000000 1.252151
v 0.391509 0.000000 2.472689
v 0.871861 0.000000 3.632361
v 1.527711 0.000000 4.702612
v 2.342911 0.000000 5.657089
v 3.297388 0.000000 6.472289
v 4.367639 0.000000 7.128139
v 5.527311 0.000000 7.608491
v 6.747849 0.000000 7.901516
v 7.999200 0.000000 8.000000
v -2.293412 1.703039 1.270905
v -2.427046 1.703039 -0.000000
v -1.895815 1.703039 2.927056
v -1.244031 1.703039 4.500605
v -0.354102 1.703039 5.952823
v 0.752048 1.703039 7.247953
v 2.047178 1.703039 8.354102
v 3.499396 1.703039 9.244032
v 5.072945 1.703039 9.895817
v 6.729096 1.703039 10.293414
v 8.000000 1.703039 10.427047
vt 0.243237 0.878400
vt 0.233829 0.997931
vt 0.001992 0.998008
vt 0.014757 0.876608
vt 0.271227 0.761811
vt 0.052736 0.718409
vt 0.317111 0.651036
vt 0.114996 0.568100
vt 0.379760 0.548804
vt 0.200005 0.429380
vt 0.457630 0.457630
vt 0.305667 0.305666
vt 0.548803 0.379760
vt 0.429380 0.200005
vt 0.651036 0.317111
vt 0.568100 0.114996
vt 0.761811 0.271227
vt 0.718409 0.052736
vt 0.878399 0.243237
vt 0.876608 0.014757
vt 0.997931 0.233829
vt 0.998008 0.001992
vn 0.576245 0.815555 -0.053030
vn 0.576245 0.815555 -0.053030
vn 0.576245 0.815555 -0.053030
vn 0.576245 0.815555 -0.053030
vn 0.573760 0.807357 -0.137746
vn 0.573760 0.807357 -0.137746
vn 0.573760 0.807357 -0.137746
vn 0.573760 0.807357 -0.137746
vn 0.551778 0.802062 -0.228554
vn 0.551778 0.802062 -0.228554
vn 0.551778 0.802062 -0.228554
vn 0.551778 0.802062 -0.228554
vn 0.513459 0.798346 -0.314650
vn 0.513459 0.798346 -0.314650
vn 0.513459 0.798346 -0.314650
vn 0.513459 0.798346 -0.314650
vn 0.459842 0.796428 -0.392743
vn 0.459842 0.796428 -0.392743
vn 0.459842 0.796428 -0.392743
vn 0.459842 0.796428 -0.392743
vn 0.392743 0.796428 -0.459842
vn 0.392743 0.796428 -0.459842
vn 0.392743 0.796428 -0.459842
vn 0.392743 0.796428 -0.459842
vn 0.314650 0.798346 -0.513459
vn 0.314650 0.798346 -0.513459
vn 0.314650 0.798346 -0.513459
vn 0.314650 0.798346 -0.513458
vn 0.228554 0.802062 -0.551778
vn 0.228554 0.802062 -0.551778
vn 0.228554 0.802062 -0.551778
vn 0.228554 0.802062 -0.551778
vn 0.137746 0.807357 -0.573760
vn 0.137746 0.807357 -0.573760
vn 0.137746 0.807357 -0.573760
vn 0.137746 0.807357 -0.573760
vn 0.053030 0.815555 -0.576245
vn 0.053030 0.815555 -0.576245
vn 0.053030 0.815555 -0.576245
vn 0.053030 0.815555 -0.576245
s off
g CurveEdge90
usemtl initialShadingGroup
f 2/1/1 1/2/2 13/3/3 12/4/4
f 3/5/5 2/1/6 12/4/7 14/6/8
f 4/7/9 3/5/10 14/6/11 15/8/12
f 5/9/13 4/7/14 15/8/15 16/10/16
f 6/11/17 5/9/18 16/10/19 17/12/20
f 7/13/21 6/11/22 17/12/23 18/14/24
f 8/15/25 7/13/26 18/14/27 19/16/28
f 9/17/29 8/15/30 19/16/31 20/18/32
f 10/19/33 9/17/34 20/18/35 21/20/36
f 11/21/37 10/19/38 21/20/39 22/22/40
