# This file uses centimeters as units for non-parametric coordinates.

mtllib InsideBend_LP.mtl
g default
v 1.551070 0.000000 -1.511599
v 1.234446 0.000000 -1.902176
v 0.923569 0.000000 -2.298515
v 1.551070 1.000000 -1.511599
v 1.234446 1.000000 -1.902176
v 0.929444 0.500000 -2.304406
v 3.000000 1.000000 -1.999174
v 3.000000 1.000000 -2.499174
v 3.000000 0.500000 -2.999174
v 3.000000 0.000000 -1.999174
v 3.000000 0.000000 -2.499174
v 3.000000 0.000000 -2.999174
v 2.173009 1.000000 -1.883481
v 2.173009 0.000000 -1.883481
v 2.007761 0.000000 -2.371582
v 1.845106 0.000000 -2.862282
v 1.845265 0.500000 -2.862441
v 2.007761 1.000000 -2.371582
v 1.834833 1.000000 -1.732151
v 1.834833 0.000000 -1.732151
v 1.591773 0.000000 -2.182700
v 1.357848 0.000000 -2.642408
v 1.367968 0.500000 -2.652555
v 1.591773 1.000000 -2.182700
v 2.563578 0.000000 -1.970776
v 2.563578 1.000000 -1.970776
v 2.473542 1.000000 -2.468698
v 2.384805 0.500000 -2.967921
v 2.384805 0.000000 -2.967921
v 2.473542 0.000000 -2.468698
v 2.776723 0.000000 -1.992110
v 2.776723 1.000000 -1.992110
v 2.729658 1.000000 -2.491651
v 2.682960 0.500000 -2.991560
v 2.682960 0.000000 -2.991560
v 2.729658 0.000000 -2.491651
v 2.362011 1.000000 -1.934770
v 2.362011 0.000000 -1.934770
v 2.232811 0.000000 -2.429223
v 2.105927 0.000000 -2.925999
v 2.105927 0.500000 -2.925999
v 2.232811 1.000000 -2.429223
v 1.997178 0.000000 -1.816185
v 1.997178 1.000000 -1.816185
v 1.793294 1.000000 -2.289042
v 1.600826 0.500000 -2.773345
v 1.593719 0.000000 -2.766220
v 1.793294 0.000000 -2.289042
v 1.686111 1.000000 -1.630755
v 1.686111 0.000000 -1.630755
v 1.405487 0.000000 -2.053927
v 1.136325 0.000000 -2.488591
v 1.144118 0.500000 -2.496404
v 1.405487 1.000000 -2.053927
v 1.000000 0.000000 0.000000
v 0.500000 0.000000 0.000000
v 0.000000 0.000000 0.000000
v 1.000000 1.000000 0.000000
v 0.500000 1.000000 0.000000
v 0.000000 0.500000 0.000000
v 1.551070 1.000000 -1.511599
v 1.234446 1.000000 -1.902176
v 0.929444 0.500000 -2.304406
v 1.551070 0.000000 -1.511599
v 1.234446 0.000000 -1.902176
v 0.923569 0.000000 -2.298515
v 1.151028 1.000000 -0.862102
v 1.151028 0.000000 -0.862102
v 0.709000 0.000000 -1.073406
v 0.252699 0.000000 -1.270401
v 0.252699 0.500000 -1.270401
v 0.709000 1.000000 -1.073406
v 1.322461 0.000000 -1.220108
v 1.322461 1.000000 -1.220108
v 0.938863 1.000000 -1.530113
v 0.552023 0.500000 -1.836867
v 0.549747 0.000000 -1.834585
v 0.938863 0.000000 -1.530113
v 1.429796 0.000000 -1.374609
v 1.429796 1.000000 -1.374609
v 1.078786 1.000000 -1.727392
v 0.731793 0.500000 -2.084202
v 0.727778 0.000000 -2.080177
v 1.078786 0.000000 -1.727392
v 1.229381 1.000000 -1.048865
v 1.229381 0.000000 -1.048865
v 0.815302 0.000000 -1.311514
v 0.390663 0.000000 -1.563576
v 0.391371 0.500000 -1.564286
v 0.815302 1.000000 -1.311514
v 1.041101 1.000000 -0.449074
v 1.041101 0.000000 -0.449074
v 0.554180 0.000000 -0.550100
v 0.063787 0.000000 -0.647645
v 0.063787 0.500000 -0.647645
v 0.554180 1.000000 -0.550100
v 1.088024 0.000000 -0.661485
v 1.088024 1.000000 -0.661485
v 0.621081 1.000000 -0.818185
v 0.142946 0.500000 -0.963664
v 0.142946 0.000000 -0.963664
v 0.621081 0.000000 -0.818185
v 1.011170 1.000000 -0.227372
v 1.011170 0.000000 -0.227372
v 0.513578 0.000000 -0.276381
v 0.015985 0.000000 -0.325389
v 0.015985 0.500000 -0.325389
v 0.513578 1.000000 -0.276381
vt 0.088975 0.007044
vt 0.009706 0.007044
vt 0.326783 0.007044
vt 0.247514 0.007044
vt 0.518156 0.007044
vt 0.438887 0.007044
vt 0.781987 0.171764
vt 0.862168 0.171764
vt 0.438887 0.482660
vt 0.597426 0.482660
vt 0.088975 0.482660
vt 0.518156 0.482660
vt 0.702168 0.090499
vt 0.702168 0.011041
vt 0.247514 0.482660
vt 0.862168 0.011041
vt 0.781987 0.011041
vt 0.326783 0.482660
vt 0.009706 0.482660
vt 0.597426 0.007044
vt 0.247514 0.244852
vt 0.088975 0.244852
vt 0.009706 0.244852
vt 0.597426 0.244852
vt 0.518156 0.244852
vt 0.438887 0.244852
vt 0.326783 0.244852
vt 0.247514 0.125948
vt 0.088975 0.125948
vt 0.009706 0.125948
vt 0.597426 0.125948
vt 0.518156 0.125948
vt 0.438887 0.125948
vt 0.326783 0.125948
vt 0.088975 0.363756
vt 0.247514 0.363756
vt 0.326783 0.363756
vt 0.438887 0.363756
vt 0.518156 0.363756
vt 0.009706 0.363756
vt 0.597426 0.363756
vt 0.088975 0.423208
vt 0.247514 0.423208
vt 0.326783 0.423208
vt 0.438887 0.423208
vt 0.518156 0.423208
vt 0.009706 0.423208
vt 0.597426 0.423208
vt 0.247514 0.304304
vt 0.088975 0.304304
vt 0.009706 0.304304
vt 0.597426 0.304304
vt 0.518156 0.304304
vt 0.438887 0.304304
vt 0.326783 0.304304
vt 0.088975 0.185400
vt 0.247514 0.185400
vt 0.326783 0.185400
vt 0.438887 0.185400
vt 0.518156 0.185400
vt 0.009706 0.185400
vt 0.597426 0.185400
vt 0.247514 0.066496
vt 0.088975 0.066496
vt 0.009706 0.066496
vt 0.597426 0.066496
vt 0.518156 0.066496
vt 0.438887 0.066496
vt 0.326783 0.066496
vt 0.660260 0.811202
vt 0.737356 0.811202
vt 0.737356 0.965600
vt 0.660260 0.965600
vt 0.814245 0.811202
vt 0.814245 0.887884
vt 0.247514 0.512192
vt 0.326783 0.512192
vt 0.326783 0.571644
vt 0.247514 0.571644
vt 0.438887 0.512192
vt 0.438887 0.571644
vt 0.088975 0.571644
vt 0.009706 0.571644
vt 0.009706 0.512192
vt 0.088975 0.512192
vt 0.597426 0.571644
vt 0.518156 0.571644
vt 0.518156 0.512192
vt 0.597426 0.512192
vt 0.088975 0.987808
vt 0.088975 0.928356
vt 0.247514 0.928356
vt 0.247514 0.987808
vt 0.009706 0.987808
vt 0.009706 0.928356
vt 0.597426 0.987808
vt 0.518156 0.987808
vt 0.518156 0.928356
vt 0.597426 0.928356
vt 0.438887 0.928356
vt 0.438887 0.987808
vt 0.326783 0.928356
vt 0.326783 0.987808
vt 0.247514 0.809452
vt 0.088975 0.809452
vt 0.088975 0.750000
vt 0.247514 0.750000
vt 0.326783 0.750000
vt 0.326783 0.809452
vt 0.438887 0.750000
vt 0.438887 0.809452
vt 0.518156 0.750000
vt 0.518156 0.809452
vt 0.597426 0.809452
vt 0.597426 0.750000
vt 0.009706 0.809452
vt 0.009706 0.750000
vt 0.088975 0.868904
vt 0.247514 0.868904
vt 0.326783 0.868904
vt 0.438887 0.868904
vt 0.518156 0.868904
vt 0.597426 0.868904
vt 0.009706 0.868904
vt 0.088975 0.690548
vt 0.247514 0.690548
vt 0.009706 0.690548
vt 0.518156 0.690548
vt 0.597426 0.690548
vt 0.438887 0.690548
vt 0.326783 0.690548
vt 0.088975 0.631096
vt 0.247514 0.631096
vt 0.326783 0.631096
vt 0.438887 0.631096
vt 0.518156 0.631096
vt 0.597426 0.631096
vt 0.009706 0.631096
vn 0.000000 1.000000 0.000000
vn 0.000000 1.000000 0.000000
vn -0.305263 0.871565 -0.383652
vn -0.315756 0.880209 -0.354304
vn -0.432041 0.713746 -0.551277
vn -0.468711 0.709723 -0.525931
vn 1.000000 0.000000 0.000000
vn 1.000000 0.000000 0.000000
vn 1.000000 0.000000 0.000000
vn 1.000000 0.000000 0.000000
vn 1.000000 0.000000 0.000000
vn 1.000000 0.000000 0.000000
vn 0.000000 -1.000000 0.000000
vn 0.000000 -1.000000 0.000000
vn 0.000000 -1.000000 0.000000
vn 0.000000 -1.000000 0.000000
vn 0.000000 -1.000000 0.000000
vn 0.000000 -1.000000 0.000000
vn -0.666442 -0.001108 -0.745556
vn -0.666442 -0.001108 -0.745556
vn -0.620629 -0.002790 -0.784100
vn -0.621954 -0.002743 -0.783049
vn 0.613677 0.000000 0.789557
vn 0.661630 0.000000 0.749830
vn 0.661630 0.000000 0.749830
vn 0.613677 0.000000 0.789557
vn 0.031622 0.000000 0.999500
vn 0.031622 0.000000 0.999500
vn 0.064933 0.000000 0.997890
vn 0.064933 0.000000 0.997890
vn 0.000000 -1.000000 0.000000
vn 0.000000 -1.000000 0.000000
vn 0.000000 -1.000000 0.000000
vn 0.000000 -1.000000 0.000000
vn 0.000000 -1.000000 0.000000
vn 0.000000 -1.000000 0.000000
vn -0.050736 0.000000 -0.998712
vn -0.024009 0.000000 -0.999712
vn -0.024009 0.000000 -0.999712
vn -0.050736 0.000000 -0.998712
vn -0.025760 0.876678 -0.480387
vn -0.012424 0.876033 -0.482092
vn -0.018209 0.707383 -0.706596
vn -0.038485 0.708612 -0.704548
vn 0.000000 1.000000 0.000000
vn 0.000000 1.000000 0.000000
vn 0.309118 0.000000 0.951024
vn 0.408457 0.000000 0.912777
vn 0.408457 0.000000 0.912777
vn 0.309118 0.000000 0.951024
vn 0.000000 -1.000000 0.000000
vn 0.000000 -1.000000 0.000000
vn 0.000000 -1.000000 0.000000
vn 0.000000 -1.000000 0.000000
vn 0.000000 -1.000000 0.000000
vn 0.000000 -1.000000 0.000000
vn -0.406304 -0.005805 -0.913720
vn -0.293568 -0.002189 -0.955936
vn -0.293596 -0.002190 -0.955927
vn -0.407653 -0.005841 -0.913118
vn -0.193953 0.880318 -0.432922
vn -0.140163 0.880648 -0.452563
vn -0.206224 0.719056 -0.663650
vn -0.281862 0.720854 -0.633185
vn 0.000000 1.000000 0.000000
vn 0.000000 1.000000 0.000000
vn 0.218127 0.000000 0.975920
vn 0.218127 0.000000 0.975920
vn 0.000000 1.000000 0.000000
vn -0.093394 0.880098 -0.465515
vn -0.138828 0.715395 -0.684790
vn -0.191980 -0.000057 -0.981399
vn -0.191980 -0.000057 -0.981399
vn 0.000000 -1.000000 0.000000
vn 0.000000 -1.000000 0.000000
vn 0.000000 -1.000000 0.000000
vn 0.136964 0.000000 0.990576
vn 0.136964 0.000000 0.990576
vn 0.000000 1.000000 0.000000
vn -0.056198 0.878335 -0.474731
vn -0.083859 0.711595 -0.697567
vn -0.112892 0.000000 -0.993607
vn -0.112892 0.000000 -0.993607
vn 0.000000 -1.000000 0.000000
vn 0.000000 -1.000000 0.000000
vn 0.000000 -1.000000 0.000000
vn 0.512037 0.000000 0.858963
vn 0.512037 0.000000 0.858963
vn 0.000000 1.000000 0.000000
vn -0.250304 0.876971 -0.410206
vn -0.358591 0.719000 -0.595358
vn -0.517720 -0.005944 -0.855530
vn -0.519642 -0.005894 -0.854364
vn 0.000000 -1.000000 0.000000
vn 0.000000 -1.000000 0.000000
vn 0.000000 -1.000000 0.000000
vn 0.000000 0.000000 1.000000
vn 0.000000 0.000000 1.000000
vn 0.000000 0.000000 1.000000
vn 0.000000 0.000000 1.000000
vn 0.000000 0.000000 1.000000
vn 0.000000 0.000000 1.000000
vn 0.000000 1.000000 0.000000
vn 0.000000 1.000000 0.000000
vn -0.485537 0.872907 -0.047821
vn -0.486861 0.873152 -0.023918
vn -0.703702 0.707107 -0.069309
vn -0.706681 0.706681 -0.034717
vn 0.000000 -1.000000 0.000000
vn 0.000000 -1.000000 0.000000
vn 0.000000 -1.000000 0.000000
vn 0.000000 -1.000000 0.000000
vn 0.000000 -1.000000 0.000000
vn 0.000000 -1.000000 0.000000
vn -0.998796 0.000000 -0.049068
vn -0.998796 0.000000 -0.049068
vn -0.995185 0.000000 -0.098017
vn -0.995185 0.000000 -0.098017
vn 0.995838 0.000000 0.091143
vn 0.998796 0.000000 0.049068
vn 0.998796 0.000000 0.049068
vn 0.995838 0.000000 0.091143
vn 0.748750 0.000000 0.662852
vn 0.748750 0.000000 0.662852
vn 0.786868 0.000000 0.617122
vn 0.786868 0.000000 0.617122
vn 0.000000 -1.000000 0.000000
vn 0.000000 -1.000000 0.000000
vn 0.000000 -1.000000 0.000000
vn 0.000000 -1.000000 0.000000
vn 0.000000 -1.000000 0.000000
vn 0.000000 -1.000000 0.000000
vn -0.778156 0.001067 -0.628071
vn -0.744345 0.000740 -0.667795
vn -0.744345 0.000740 -0.667795
vn -0.778622 0.001072 -0.627492
vn -0.393249 0.864401 -0.313314
vn -0.388684 0.853257 -0.347673
vn -0.529143 0.704261 -0.473311
vn -0.553433 0.703242 -0.446276
vn 0.000000 1.000000 0.000000
vn 0.000000 1.000000 0.000000
vn 0.901926 0.000000 0.431892
vn 0.939410 0.000000 0.342796
vn 0.939410 0.000000 0.342796
vn 0.901926 0.000000 0.431892
vn 0.000000 1.000000 0.000000
vn 0.000000 1.000000 0.000000
vn -0.447629 0.863947 -0.230702
vn -0.462881 0.866483 -0.186945
vn -0.632174 0.702057 -0.327830
vn -0.657862 0.704434 -0.266442
vn -0.924188 0.000169 -0.381937
vn -0.884474 0.000692 -0.466588
vn -0.884526 0.000692 -0.466490
vn -0.924188 0.000169 -0.381937
vn 0.000000 -1.000000 0.000000
vn 0.000000 -1.000000 0.000000
vn 0.000000 -1.000000 0.000000
vn 0.000000 -1.000000 0.000000
vn 0.000000 -1.000000 0.000000
vn 0.000000 -1.000000 0.000000
vn 0.851708 0.000000 0.524017
vn 0.851708 0.000000 0.524017
vn 0.000000 1.000000 0.000000
vn -0.424705 0.863278 -0.272722
vn -0.598177 0.701309 -0.387750
vn -0.836932 0.001220 -0.547305
vn -0.837144 0.001218 -0.546982
vn 0.000000 -1.000000 0.000000
vn 0.000000 -1.000000 0.000000
vn 0.000000 -1.000000 0.000000
vn 0.966359 0.000000 0.257196
vn 0.966359 0.000000 0.257196
vn 0.000000 -1.000000 0.000000
vn 0.000000 -1.000000 0.000000
vn 0.000000 -1.000000 0.000000
vn -0.956940 0.000000 -0.290285
vn -0.956940 0.000000 -0.290285
vn -0.473063 0.869542 -0.141806
vn -0.677996 0.706375 -0.203360
vn 0.000000 1.000000 0.000000
vn 0.984688 0.000000 0.174325
vn 0.984688 0.000000 0.174325
vn 0.000000 1.000000 0.000000
vn -0.481035 0.871477 -0.095570
vn -0.693596 0.707060 -0.137807
vn -0.980785 0.000000 -0.195090
vn -0.980785 0.000000 -0.195090
vn 0.000000 -1.000000 0.000000
vn 0.000000 -1.000000 0.000000
vn 0.000000 -1.000000 0.000000
s 1
g InsideBend
usemtl initialShadingGroup
f 4/4/1 49/63/2 54/69/3 5/3/4
f 5/3/4 54/69/3 53/68/5 6/6/6
s 2
f 7/8/7 10/16/8 11/17/9 8/7/10
f 8/7/10 11/17/9 12/14/11 9/13/12
s 3
f 50/64/13 1/1/14 2/2/15 51/65/16
f 51/66/16 2/20/15 3/5/17 52/67/18
s 4
f 3/5/19 6/6/20 53/68/21 52/67/22
s 5
f 49/63/23 4/4/24 1/1/25 50/64/26
f 10/11/27 7/15/28 32/43/29 31/42/30
s 3
f 10/11/31 31/42/32 36/47/33 11/19/34
f 11/10/34 36/48/33 35/46/35 12/12/36
s 4
f 34/45/37 9/9/38 12/12/39 35/46/40
s 1
f 33/44/41 8/18/42 9/9/43 34/45/44
f 32/43/45 7/15/46 8/18/42 33/44/41
s 5
f 13/21/47 44/57/48 43/56/49 14/22/50
s 3
f 14/22/51 43/56/52 48/61/53 15/23/54
f 15/24/54 48/62/53 47/60/55 16/25/56
s 4
f 46/59/57 17/26/58 16/25/59 47/60/60
s 1
f 45/58/61 18/27/62 17/26/63 46/59/64
f 44/57/65 13/21/66 18/27/62 45/58/61
s 5
f 37/49/67 13/21/47 14/22/50 38/50/68
s 1
f 13/21/66 37/49/69 42/55/70 18/27/62
f 18/27/62 42/55/70 41/54/71 17/26/63
s 4
f 17/26/58 41/54/72 40/53/73 16/25/59
s 3
f 39/52/74 15/24/54 16/25/56 40/53/75
f 38/50/76 14/22/51 15/23/54 39/51/74
s 5
f 32/43/29 26/36/77 25/35/78 31/42/30
s 1
f 26/36/79 32/43/45 33/44/41 27/37/80
f 27/37/80 33/44/41 34/45/44 28/38/81
s 4
f 28/38/82 34/45/37 35/46/40 29/39/83
s 3
f 36/48/33 30/41/84 29/39/85 35/46/35
f 31/42/32 25/35/86 30/40/84 36/47/33
s 5
f 26/36/77 37/49/67 38/50/68 25/35/78
s 3
f 25/35/86 38/50/76 39/51/74 30/40/84
f 30/41/84 39/52/74 40/53/75 29/39/85
s 4
f 41/54/72 28/38/82 29/39/83 40/53/73
s 1
f 42/55/70 27/37/80 28/38/81 41/54/71
f 37/49/69 26/36/79 27/37/80 42/55/70
s 5
f 44/57/48 19/28/87 20/29/88 43/56/49
s 1
f 19/28/89 44/57/65 45/58/61 24/34/90
f 24/34/90 45/58/61 46/59/64 23/33/91
s 4
f 23/33/92 46/59/57 47/60/60 22/32/93
s 3
f 48/62/53 21/31/94 22/32/95 47/60/55
f 43/56/52 20/29/96 21/30/94 48/61/53
s 5
f 19/28/87 49/63/23 50/64/26 20/29/88
s 3
f 20/29/96 50/64/13 51/65/16 21/30/94
f 21/31/94 51/66/16 52/67/18 22/32/95
s 4
f 53/68/21 23/33/92 22/32/93 52/67/22
s 1
f 54/69/3 24/34/90 23/33/91 53/68/5
f 49/63/2 19/28/89 24/34/90 54/69/3
s 14
f 55/70/97 58/73/98 59/72/99 56/71/100
f 56/71/100 59/72/99 60/75/101 57/74/102
s 15
f 58/76/103 103/79/104 108/78/105 59/77/106
f 59/77/106 108/78/105 107/81/107 60/80/108
s 16
f 104/82/109 55/85/110 56/84/111 105/83/112
f 105/86/112 56/89/111 57/88/113 106/87/114
s 17
f 57/88/115 60/80/116 107/81/117 106/87/118
s 18
f 103/79/119 58/76/120 55/85/121 104/82/122
f 64/90/123 61/93/124 80/92/125 79/91/126
s 16
f 64/90/127 79/91/128 84/95/129 65/94/130
f 65/96/130 84/99/129 83/98/131 66/97/132
s 17
f 82/100/133 63/101/134 66/97/135 83/98/136
s 15
f 81/102/137 62/103/138 63/101/139 82/100/140
f 80/92/141 61/93/142 62/103/138 81/102/137
s 18
f 85/104/143 67/107/144 68/106/145 86/105/146
s 15
f 67/107/147 85/104/148 90/109/149 72/108/150
f 72/108/150 90/109/149 89/111/151 71/110/152
s 17
f 71/110/153 89/111/154 88/113/155 70/112/156
s 16
f 87/114/157 69/115/158 70/112/159 88/113/160
f 86/105/161 68/106/162 69/117/158 87/116/157
s 18
f 80/92/125 74/119/163 73/118/164 79/91/126
s 15
f 74/119/165 80/92/141 81/102/137 75/120/166
f 75/120/166 81/102/137 82/100/140 76/121/167
s 17
f 76/121/168 82/100/133 83/98/136 77/122/169
s 16
f 84/99/129 78/123/170 77/122/171 83/98/131
f 79/91/128 73/118/172 78/124/170 84/95/129
s 18
f 74/119/163 85/104/143 86/105/146 73/118/164
s 16
f 73/118/172 86/105/161 87/116/157 78/124/170
f 78/123/170 87/114/157 88/113/160 77/122/171
s 17
f 89/111/154 76/121/168 77/122/169 88/113/155
s 15
f 90/109/149 75/120/166 76/121/167 89/111/151
f 85/104/148 74/119/165 75/120/166 90/109/149
s 18
f 67/107/144 98/126/173 97/125/174 68/106/145
s 16
f 68/106/162 97/125/175 102/127/176 69/117/158
f 69/115/158 102/129/176 101/128/177 70/112/159
s 17
f 100/130/178 71/110/153 70/112/156 101/128/179
s 15
f 99/131/180 72/108/150 71/110/152 100/130/181
f 98/126/182 67/107/147 72/108/150 99/131/180
s 18
f 98/126/173 91/133/183 92/132/184 97/125/174
s 15
f 91/133/185 98/126/182 99/131/180 96/134/186
f 96/134/186 99/131/180 100/130/181 95/135/187
s 17
f 95/135/188 100/130/178 101/128/179 94/136/189
s 16
f 102/129/176 93/137/190 94/136/191 101/128/177
f 97/125/175 92/132/192 93/138/190 102/127/176
s 18
f 91/133/183 103/79/119 104/82/122 92/132/184
s 16
f 92/132/192 104/82/109 105/83/112 93/138/190
f 93/137/190 105/86/112 106/87/114 94/136/191
s 17
f 107/81/117 95/135/188 94/136/189 106/87/118
s 15
f 108/78/105 96/134/186 95/135/187 107/81/107
f 103/79/104 91/133/185 96/134/186 108/78/105
