# This file uses centimeters as units for non-parametric coordinates.

mtllib OutsideBend_LP.mtl
g default
v 0.187261 0.000000 -2.977040
v 0.511475 0.000000 -2.594392
v 0.840585 0.000000 -2.216606
v 0.191051 1.000000 -2.980800
v 0.516094 1.000000 -2.598971
v 0.840585 0.500000 -2.216606
v 3.000000 1.000000 -4.002773
v 3.000000 1.000000 -3.502773
v 3.000000 0.500000 -3.002773
v 3.000000 0.000000 -4.002773
v 3.000000 0.000000 -3.502773
v 3.000000 0.000000 -3.002773
v 1.440414 1.000000 -3.766582
v 1.440414 0.000000 -3.766582
v 1.613814 0.000000 -3.286867
v 1.788920 0.000000 -2.808840
v 1.788920 0.500000 -2.808840
v 1.615111 1.000000 -3.288142
v 0.773860 1.000000 -3.446882
v 0.773860 0.000000 -3.446882
v 1.020490 0.000000 -3.000294
v 1.276696 0.000000 -2.563169
v 1.276696 0.500000 -2.563169
v 1.026838 1.000000 -3.006583
v 2.183599 0.000000 -3.945866
v 2.183599 1.000000 -3.945866
v 2.275528 1.000000 -3.449908
v 2.368088 0.500000 -2.954576
v 2.368088 0.000000 -2.954576
v 2.275528 0.000000 -3.449908
v 2.583333 0.000000 -3.988652
v 2.583333 1.000000 -3.988652
v 2.630879 1.000000 -3.489612
v 2.678603 0.500000 -2.990745
v 2.678603 0.000000 -2.990745
v 2.630879 0.000000 -3.489612
v 1.803029 1.000000 -3.873212
v 1.803029 0.000000 -3.873212
v 1.936368 0.000000 -3.383053
v 2.070875 0.000000 -2.894047
v 2.070875 0.500000 -2.894047
v 1.936368 1.000000 -3.383053
v 1.096433 0.000000 -3.624187
v 1.096433 1.000000 -3.624187
v 1.312891 1.000000 -3.164153
v 1.523782 0.500000 -2.698627
v 1.523782 0.000000 -2.698627
v 1.307121 0.000000 -3.158460
v 0.473187 1.000000 -3.233790
v 0.468812 0.000000 -3.229485
v 0.754961 0.000000 -2.812199
v 1.048672 0.000000 -2.402414
v 1.048672 0.500000 -2.402414
v 0.760461 1.000000 -2.817650
v -1.000000 0.000000 0.000000
v -0.500000 0.000000 0.000000
v 0.000030 0.000000 0.000000
v -1.000000 1.000000 0.000000
v -0.500000 1.000000 0.000000
v 0.000030 0.500000 0.000000
v -0.672861 1.000000 -1.651326
v -0.673355 0.000000 -1.650829
v -0.221712 0.000000 -1.449211
v 0.224431 0.000000 -1.242162
v 0.224431 0.500000 -1.242162
v -0.220416 1.000000 -1.450502
v -0.299123 0.000000 -2.372832
v -0.297103 1.000000 -2.374841
v 0.097359 1.000000 -2.075930
v 0.487519 0.500000 -1.772769
v 0.487519 0.000000 -1.772769
v 0.094488 0.000000 -2.073078
v -0.069161 0.000000 -2.690947
v -0.066275 1.000000 -2.693811
v 0.294709 1.000000 -2.351292
v 0.653255 0.500000 -2.006369
v 0.653255 0.000000 -2.006369
v 0.290975 0.000000 -2.347587
v -0.499877 1.000000 -2.026299
v -0.501120 0.000000 -2.025061
v -0.076835 0.000000 -1.772778
v 0.344261 0.000000 -1.517355
v 0.344261 0.500000 -1.517355
v -0.074783 1.000000 -1.774818
v -0.916998 1.000000 -0.842735
v -0.916995 0.000000 -0.842735
v -0.426545 0.000000 -0.745190
v 0.059093 0.000000 -0.642854
v 0.059093 0.500000 -0.642854
v -0.426552 1.000000 -0.745190
v -0.813955 0.000000 -1.253948
v -0.813961 1.000000 -1.253948
v -0.338149 1.000000 -1.106092
v 0.129035 0.500000 -0.949689
v 0.129035 0.000000 -0.949689
v -0.338763 0.000000 -1.105475
v -0.979199 1.000000 -0.423407
v -0.979199 0.000000 -0.423407
v -0.481595 0.000000 -0.374398
v 0.015596 0.000000 -0.324921
v 0.015596 0.500000 -0.324921
v -0.481598 1.000000 -0.374398
vt 0.088975 0.007044
vt 0.009706 0.007044
vt 0.326783 0.007044
vt 0.247514 0.007044
vt 0.518156 0.007044
vt 0.438887 0.007044
vt 0.781987 0.171764
vt 0.862168 0.171764
vt 0.438887 0.482660
vt 0.597426 0.482660
vt 0.088975 0.482660
vt 0.518156 0.482660
vt 0.702168 0.090499
vt 0.702168 0.011041
vt 0.247514 0.482660
vt 0.862168 0.011041
vt 0.781987 0.011041
vt 0.326783 0.482660
vt 0.009706 0.482660
vt 0.597426 0.007044
vt 0.247514 0.244852
vt 0.088975 0.244852
vt 0.009706 0.244852
vt 0.597426 0.244852
vt 0.518156 0.244852
vt 0.438887 0.244852
vt 0.326783 0.244852
vt 0.247514 0.125948
vt 0.088975 0.125948
vt 0.009706 0.125948
vt 0.597426 0.125948
vt 0.518156 0.125948
vt 0.438887 0.125948
vt 0.326783 0.125948
vt 0.088975 0.363756
vt 0.247514 0.363756
vt 0.326783 0.363756
vt 0.438887 0.363756
vt 0.518156 0.363756
vt 0.009706 0.363756
vt 0.597426 0.363756
vt 0.088975 0.423208
vt 0.247514 0.423208
vt 0.326783 0.423208
vt 0.438887 0.423208
vt 0.518156 0.423208
vt 0.009706 0.423208
vt 0.597426 0.423208
vt 0.247514 0.304304
vt 0.088975 0.304304
vt 0.009706 0.304304
vt 0.597426 0.304304
vt 0.518156 0.304304
vt 0.438887 0.304304
vt 0.326783 0.304304
vt 0.088975 0.185400
vt 0.247514 0.185400
vt 0.326783 0.185400
vt 0.438887 0.185400
vt 0.518156 0.185400
vt 0.009706 0.185400
vt 0.597426 0.185400
vt 0.247514 0.066496
vt 0.088975 0.066496
vt 0.009706 0.066496
vt 0.597426 0.066496
vt 0.518156 0.066496
vt 0.438887 0.066496
vt 0.326783 0.066496
vt 0.660260 0.811202
vt 0.737356 0.811202
vt 0.737356 0.965600
vt 0.660260 0.965600
vt 0.814245 0.811202
vt 0.814245 0.887884
vt 0.247514 0.512192
vt 0.326783 0.512192
vt 0.326783 0.571644
vt 0.247514 0.571644
vt 0.438887 0.512192
vt 0.438887 0.571644
vt 0.088975 0.571644
vt 0.009706 0.571644
vt 0.009706 0.512192
vt 0.088975 0.512192
vt 0.597426 0.571644
vt 0.518156 0.571644
vt 0.518156 0.512192
vt 0.597426 0.512192
vt 0.088975 0.987808
vt 0.088975 0.928356
vt 0.247514 0.928356
vt 0.247514 0.987808
vt 0.009706 0.987808
vt 0.009706 0.928356
vt 0.597426 0.987808
vt 0.518156 0.987808
vt 0.518156 0.928356
vt 0.597426 0.928356
vt 0.438887 0.928356
vt 0.438887 0.987808
vt 0.326783 0.928356
vt 0.326783 0.987808
vt 0.247514 0.809452
vt 0.088975 0.809452
vt 0.088975 0.750000
vt 0.247514 0.750000
vt 0.326783 0.750000
vt 0.326783 0.809452
vt 0.438887 0.750000
vt 0.438887 0.809452
vt 0.518156 0.750000
vt 0.518156 0.809452
vt 0.597426 0.809452
vt 0.597426 0.750000
vt 0.009706 0.809452
vt 0.009706 0.750000
vt 0.088975 0.868904
vt 0.247514 0.868904
vt 0.326783 0.868904
vt 0.438887 0.868904
vt 0.518156 0.868904
vt 0.597426 0.868904
vt 0.009706 0.868904
vt 0.088975 0.690548
vt 0.247514 0.690548
vt 0.009706 0.690548
vt 0.518156 0.690548
vt 0.597426 0.690548
vt 0.438887 0.690548
vt 0.326783 0.690548
vt 0.088975 0.631096
vt 0.247514 0.631096
vt 0.326783 0.631096
vt 0.438887 0.631096
vt 0.518156 0.631096
vt 0.597426 0.631096
vt 0.009706 0.631096
vn 0.000000 1.000000 0.000000
vn 0.282234 0.905912 0.315704
vn 0.252538 0.913766 0.318208
vn 0.000000 1.000000 0.000000
vn 0.470572 0.708159 0.526377
vn 0.439494 0.710219 0.549940
vn 1.000000 0.000000 0.000000
vn 1.000000 0.000000 0.000000
vn 1.000000 0.000000 0.000000
vn 1.000000 0.000000 0.000000
vn 1.000000 0.000000 0.000000
vn 1.000000 0.000000 0.000000
vn 0.000000 -1.000000 0.000000
vn 0.000000 -1.000000 0.000000
vn 0.000000 -1.000000 0.000000
vn 0.000000 -1.000000 0.000000
vn 0.000000 -1.000000 0.000000
vn 0.000000 -1.000000 0.000000
vn 0.666047 0.000000 0.745910
vn 0.622146 0.000000 0.782901
vn 0.622146 0.000000 0.782901
vn 0.666047 0.000000 0.745910
vn -0.624685 -0.000382 -0.780876
vn -0.625028 -0.000381 -0.780602
vn -0.667588 -0.000277 -0.744530
vn -0.667588 -0.000277 -0.744530
vn -0.033871 0.000000 -0.999426
vn -0.069537 0.000000 -0.997579
vn -0.069537 0.000000 -0.997579
vn -0.033871 0.000000 -0.999426
vn 0.000000 -1.000000 0.000000
vn 0.000000 -1.000000 0.000000
vn 0.000000 -1.000000 0.000000
vn 0.000000 -1.000000 0.000000
vn 0.000000 -1.000000 0.000000
vn 0.000000 -1.000000 0.000000
vn 0.076050 0.000000 0.997104
vn 0.076050 0.000000 0.997104
vn 0.037400 0.000000 0.999300
vn 0.037400 0.000000 0.999300
vn 0.031028 0.909623 0.414275
vn 0.052249 0.707994 0.704283
vn 0.025779 0.707087 0.706657
vn 0.015184 0.909131 0.416233
vn 0.000000 1.000000 0.000000
vn 0.000000 1.000000 0.000000
vn -0.332390 0.000000 -0.943142
vn -0.332390 0.000000 -0.943142
vn -0.432460 0.000000 -0.901653
vn -0.432460 0.000000 -0.901653
vn 0.000000 -1.000000 0.000000
vn 0.000000 -1.000000 0.000000
vn 0.000000 -1.000000 0.000000
vn 0.000000 -1.000000 0.000000
vn 0.000000 -1.000000 0.000000
vn 0.000000 -1.000000 0.000000
vn 0.432449 0.000000 0.901659
vn 0.432449 0.000000 0.901659
vn 0.336381 0.000000 0.941726
vn 0.336381 0.000000 0.941726
vn 0.174933 0.914164 0.365654
vn 0.302688 0.714373 0.630913
vn 0.233600 0.713855 0.660184
vn 0.136047 0.913216 0.384095
vn 0.000000 1.000000 0.000000
vn 0.000000 1.000000 0.000000
vn -0.234510 0.000000 -0.972114
vn -0.234510 0.000000 -0.972114
vn 0.099078 0.911849 0.398390
vn 0.000000 1.000000 0.000000
vn 0.168774 0.711974 0.681622
vn 0.244024 0.000000 0.969769
vn 0.244024 0.000000 0.969769
vn 0.000000 -1.000000 0.000000
vn 0.000000 -1.000000 0.000000
vn 0.000000 -1.000000 0.000000
vn -0.146350 0.000000 -0.989233
vn -0.146350 0.000000 -0.989233
vn 0.000000 1.000000 0.000000
vn 0.064017 0.910513 0.408495
vn 0.108296 0.709754 0.696076
vn 0.157137 0.000000 0.987577
vn 0.157137 0.000000 0.987577
vn 0.000000 -1.000000 0.000000
vn 0.000000 -1.000000 0.000000
vn 0.000000 -1.000000 0.000000
vn -0.531609 -0.000245 -0.846990
vn -0.531609 -0.000245 -0.846990
vn 0.000000 1.000000 0.000000
vn 0.214774 0.913957 0.344318
vn 0.372529 0.712928 0.594101
vn 0.529061 0.000000 0.848584
vn 0.529061 0.000000 0.848584
vn 0.000000 -1.000000 0.000000
vn 0.000000 -1.000000 0.000000
vn 0.000000 -1.000000 0.000000
vn 0.000000 0.000000 1.000000
vn 0.000000 0.000000 1.000000
vn 0.000000 0.000000 1.000000
vn 0.000000 0.000000 1.000000
vn 0.000000 0.000000 1.000000
vn 0.000000 0.000000 1.000000
vn 0.000000 1.000000 0.000000
vn 0.413294 0.910376 0.020075
vn 0.411249 0.910677 0.039269
vn 0.000000 1.000000 0.000000
vn 0.706822 0.706558 0.034333
vn 0.704781 0.706237 0.067176
vn 0.000000 -1.000000 0.000000
vn 0.000000 -1.000000 0.000000
vn 0.000000 -1.000000 0.000000
vn 0.000000 -1.000000 0.000000
vn 0.000000 -1.000000 0.000000
vn 0.000000 -1.000000 0.000000
vn 0.998854 0.000000 0.047853
vn 0.995806 0.000000 0.091491
vn 0.995806 0.000000 0.091491
vn 0.998854 0.000000 0.047853
vn -0.995185 -0.000001 -0.098019
vn -0.995185 -0.000001 -0.098019
vn -0.998796 0.000000 -0.049068
vn -0.998796 0.000000 -0.049068
vn -0.744602 0.000275 -0.667509
vn -0.778939 0.000420 -0.627100
vn -0.778770 0.000419 -0.627310
vn -0.744602 0.000275 -0.667509
vn 0.000000 -1.000000 0.000000
vn 0.000000 -1.000000 0.000000
vn 0.000000 -1.000000 0.000000
vn 0.000000 -1.000000 0.000000
vn 0.000000 -1.000000 0.000000
vn 0.000000 -1.000000 0.000000
vn 0.782589 0.000000 0.622538
vn 0.782589 0.000000 0.622538
vn 0.746613 0.000000 0.665259
vn 0.746613 0.000000 0.665259
vn 0.319980 0.912011 0.256611
vn 0.556072 0.703956 0.441849
vn 0.529156 0.704931 0.472299
vn 0.293107 0.919590 0.261613
vn 0.000000 1.000000 0.000000
vn 0.000000 1.000000 0.000000
vn -0.887615 0.000510 -0.460586
vn -0.887662 0.000510 -0.460496
vn -0.926497 0.000285 -0.376302
vn -0.926483 0.000285 -0.376336
vn 0.000000 1.000000 0.000000
vn 0.385726 0.910355 0.149901
vn 0.369301 0.910425 0.186397
vn 0.000000 1.000000 0.000000
vn 0.666217 0.700184 0.256707
vn 0.638608 0.700151 0.319327
vn 0.935050 0.000000 0.354516
vn 0.935050 0.000000 0.354516
vn 0.895919 0.000000 0.444218
vn 0.895919 0.000000 0.444218
vn 0.000000 -1.000000 0.000000
vn 0.000000 -1.000000 0.000000
vn 0.000000 -1.000000 0.000000
vn 0.000000 -1.000000 0.000000
vn 0.000000 -1.000000 0.000000
vn 0.000000 -1.000000 0.000000
vn -0.838821 0.000578 -0.544407
vn -0.838725 0.000578 -0.544555
vn 0.000000 1.000000 0.000000
vn 0.347355 0.911018 0.222239
vn 0.601972 0.701503 0.381476
vn 0.845377 0.000000 0.534171
vn 0.845377 0.000000 0.534171
vn 0.000000 -1.000000 0.000000
vn 0.000000 -1.000000 0.000000
vn 0.000000 -1.000000 0.000000
vn -0.957373 0.000071 -0.288853
vn -0.957373 0.000071 -0.288853
vn 0.000000 -1.000000 0.000000
vn 0.000000 -1.000000 0.000000
vn 0.000000 -1.000000 0.000000
vn 0.963988 0.000000 0.265947
vn 0.963988 0.000000 0.265947
vn 0.397756 0.910432 0.113594
vn 0.685457 0.701682 0.194397
vn 0.000000 1.000000 0.000000
vn -0.980777 -0.000003 -0.195131
vn -0.980777 -0.000003 -0.195131
vn 0.000000 1.000000 0.000000
vn 0.406045 0.910602 0.077018
vn 0.697714 0.704160 0.131735
vn 0.983913 0.000000 0.178649
vn 0.983913 0.000000 0.178649
vn 0.000000 -1.000000 0.000000
vn 0.000000 -1.000000 0.000000
vn 0.000000 -1.000000 0.000000
s 1
g OutsideBend
usemtl initialShadingGroup
f 4/4/1 5/3/2 54/69/3 49/63/4
f 5/3/2 6/6/5 53/68/6 54/69/3
s 2
f 7/8/7 8/7/8 11/17/9 10/16/10
f 8/7/8 9/13/11 12/14/12 11/17/9
s 3
f 50/64/13 51/65/14 2/2/15 1/1/16
f 51/66/14 52/67/17 3/5/18 2/20/15
s 4
f 3/5/19 52/67/20 53/68/21 6/6/22
s 5
f 49/63/23 50/64/24 1/1/25 4/4/26
f 10/11/27 31/42/28 32/43/29 7/15/30
s 3
f 10/11/31 11/19/32 36/47/33 31/42/34
f 11/10/32 12/12/35 35/46/36 36/48/33
s 4
f 34/45/37 35/46/38 12/12/39 9/9/40
s 1
f 33/44/41 34/45/42 9/9/43 8/18/44
f 32/43/45 33/44/41 8/18/44 7/15/46
s 5
f 13/21/47 14/22/48 43/56/49 44/57/50
s 3
f 14/22/51 15/23/52 48/61/53 43/56/54
f 15/24/52 16/25/55 47/60/56 48/62/53
s 4
f 46/59/57 47/60/58 16/25/59 17/26/60
s 1
f 45/58/61 46/59/62 17/26/63 18/27/64
f 44/57/65 45/58/61 18/27/64 13/21/66
s 5
f 37/49/67 38/50/68 14/22/48 13/21/47
s 1
f 13/21/66 18/27/64 42/55/69 37/49/70
f 18/27/64 17/26/63 41/54/71 42/55/69
s 4
f 17/26/60 16/25/59 40/53/72 41/54/73
s 3
f 39/52/74 40/53/75 16/25/55 15/24/52
f 38/50/76 39/51/74 15/23/52 14/22/51
s 5
f 32/43/29 31/42/28 25/35/77 26/36/78
s 1
f 26/36/79 27/37/80 33/44/41 32/43/45
f 27/37/80 28/38/81 34/45/42 33/44/41
s 4
f 28/38/82 29/39/83 35/46/38 34/45/37
s 3
f 36/48/33 35/46/36 29/39/84 30/41/85
f 31/42/34 36/47/33 30/40/85 25/35/86
s 5
f 26/36/78 25/35/77 38/50/68 37/49/67
s 3
f 25/35/86 30/40/85 39/51/74 38/50/76
f 30/41/85 29/39/84 40/53/75 39/52/74
s 4
f 41/54/73 40/53/72 29/39/83 28/38/82
s 1
f 42/55/69 41/54/71 28/38/81 27/37/80
f 37/49/70 42/55/69 27/37/80 26/36/79
s 5
f 44/57/50 43/56/49 20/29/87 19/28/88
s 1
f 19/28/89 24/34/90 45/58/61 44/57/65
f 24/34/90 23/33/91 46/59/62 45/58/61
s 4
f 23/33/92 22/32/93 47/60/58 46/59/57
s 3
f 48/62/53 47/60/56 22/32/94 21/31/95
f 43/56/54 48/61/53 21/30/95 20/29/96
s 5
f 19/28/88 20/29/87 50/64/24 49/63/23
s 3
f 20/29/96 21/30/95 51/65/14 50/64/13
f 21/31/95 22/32/94 52/67/17 51/66/14
s 4
f 53/68/21 52/67/20 22/32/93 23/33/92
s 1
f 54/69/3 53/68/6 23/33/91 24/34/90
f 49/63/4 54/69/3 24/34/90 19/28/89
s 14
f 55/70/97 56/71/98 59/72/99 58/73/100
f 56/71/98 57/74/101 60/75/102 59/72/99
s 15
f 58/76/103 59/77/104 102/78/105 97/79/106
f 59/77/104 60/80/107 101/81/108 102/78/105
s 16
f 98/82/109 99/83/110 56/84/111 55/85/112
f 99/86/110 100/87/113 57/88/114 56/89/111
s 17
f 57/88/115 100/87/116 101/81/117 60/80/118
s 18
f 97/79/119 98/82/120 55/85/121 58/76/122
f 1/90/123 73/91/124 74/92/125 4/93/126
s 16
f 1/90/127 2/94/128 78/95/129 73/91/130
f 2/96/128 3/97/131 77/98/132 78/99/129
s 17
f 76/100/133 77/98/134 3/97/135 6/101/136
s 15
f 75/102/137 76/100/138 6/101/139 5/103/140
f 74/92/141 75/102/137 5/103/140 4/93/142
s 18
f 79/104/143 80/105/144 62/106/145 61/107/146
s 15
f 61/107/147 66/108/148 84/109/149 79/104/150
f 66/108/148 65/110/151 83/111/152 84/109/149
s 17
f 65/110/153 64/112/154 82/113/155 83/111/156
s 16
f 81/114/157 82/113/158 64/112/159 63/115/160
f 80/105/161 81/116/157 63/117/160 62/106/162
s 18
f 74/92/125 73/91/124 67/118/163 68/119/164
s 15
f 68/119/165 69/120/166 75/102/137 74/92/141
f 69/120/166 70/121/167 76/100/138 75/102/137
s 17
f 70/121/168 71/122/169 77/98/134 76/100/133
s 16
f 78/99/129 77/98/132 71/122/170 72/123/171
f 73/91/130 78/95/129 72/124/171 67/118/172
s 18
f 68/119/164 67/118/163 80/105/144 79/104/143
s 16
f 67/118/172 72/124/171 81/116/157 80/105/161
f 72/123/171 71/122/170 82/113/158 81/114/157
s 17
f 83/111/156 82/113/155 71/122/169 70/121/168
s 15
f 84/109/149 83/111/152 70/121/167 69/120/166
f 79/104/150 84/109/149 69/120/166 68/119/165
s 18
f 61/107/146 62/106/145 91/125/173 92/126/174
s 16
f 62/106/162 63/117/160 96/127/175 91/125/176
f 63/115/160 64/112/159 95/128/177 96/129/175
s 17
f 94/130/178 95/128/179 64/112/154 65/110/153
s 15
f 93/131/180 94/130/181 65/110/151 66/108/148
f 92/126/182 93/131/180 66/108/148 61/107/147
s 18
f 92/126/174 91/125/173 86/132/183 85/133/184
s 15
f 85/133/185 90/134/186 93/131/180 92/126/182
f 90/134/186 89/135/187 94/130/181 93/131/180
s 17
f 89/135/188 88/136/189 95/128/179 94/130/178
s 16
f 96/129/175 95/128/177 88/136/190 87/137/191
f 91/125/176 96/127/175 87/138/191 86/132/192
s 18
f 85/133/184 86/132/183 98/82/120 97/79/119
s 16
f 86/132/192 87/138/191 99/83/110 98/82/109
f 87/137/191 88/136/190 100/87/113 99/86/110
s 17
f 101/81/117 100/87/116 88/136/189 89/135/188
s 15
f 102/78/105 101/81/108 89/135/187 90/134/186
f 97/79/106 102/78/105 90/134/186 85/133/185
